# Wavefront OBJ file automatically generated by Tiled2Unity

# Vertices (Count = 354)
v -48 -208 0
v -64 -208 0
v -64 -144 0
v -48 -144 0
v -80 -208 0
v -80 -144 0
v -96 -208 0
v -96 -144 0
v -112 -208 0
v -112 -144 0
v -128 -208 0
v -128 -144 0
v -144 -208 0
v -144 -144 0
v -160 -208 0
v -160 -144 0
v -176 -208 0
v -176 -144 0
v -208 -208 0
v -224 -208 0
v -224 -144 0
v -208 -144 0
v -240 -208 0
v -240 -144 0
v -256 -208 0
v -256 -144 0
v -288 -208 0
v -304 -208 0
v -304 -144 0
v -288 -144 0
v -320 -208 0
v -320 -144 0
v -336 -208 0
v -336 -144 0
v -352 -208 0
v -352 -144 0
v -368 -208 0
v -368 -144 0
v -384 -208 0
v -384 -144 0
v -400 -208 0
v -400 -144 0
v -416 -208 0
v -416 -144 0
v -432 -208 0
v -432 -144 0
v -448 -208 0
v -448 -144 0
v -464 -208 0
v -464 -144 0
v 0 -32 0
v -16 -32 0
v -16 -16 0
v 0 -16 0
v -48 -32 0
v -64 -32 0
v -64 -16 0
v -48 -16 0
v -224 -32 0
v -240 -32 0
v -240 -16 0
v -224 -16 0
v -464 -32 0
v -480 -32 0
v -480 -16 0
v -464 -16 0
v 0 -48 0
v -16 -48 0
v -48 -48 0
v -64 -48 0
v -224 -48 0
v -240 -48 0
v -464 -48 0
v -480 -48 0
v 0 -64 0
v -16 -64 0
v -48 -64 0
v -64 -64 0
v -224 -64 0
v -240 -64 0
v -464 -64 0
v -480 -64 0
v 0 -80 0
v -16 -80 0
v -48 -80 0
v -64 -80 0
v -80 -80 0
v -80 -16 0
v -96 -80 0
v -96 -16 0
v -112 -80 0
v -112 -16 0
v -128 -80 0
v -128 -16 0
v -144 -80 0
v -144 -16 0
v -160 -80 0
v -160 -16 0
v -176 -80 0
v -176 -16 0
v -192 -80 0
v -192 -16 0
v -208 -80 0
v -208 -16 0
v -224 -80 0
v -240 -80 0
v -256 -80 0
v -256 -16 0
v -272 -80 0
v -272 -16 0
v -288 -80 0
v -288 -16 0
v -304 -80 0
v -304 -16 0
v -320 -80 0
v -320 -16 0
v -336 -80 0
v -336 -16 0
v -352 -80 0
v -352 -16 0
v -368 -80 0
v -368 -16 0
v -384 -80 0
v -384 -16 0
v -400 -80 0
v -400 -16 0
v -416 -80 0
v -416 -16 0
v -432 -80 0
v -432 -16 0
v -448 -80 0
v -448 -16 0
v -464 -80 0
v -480 -80 0
v 0 -96 0
v -16 -96 0
v -48 -96 0
v -64 -96 0
v -464 -96 0
v -480 -96 0
v 0 -112 0
v -16 -112 0
v -48 -112 0
v -64 -112 0
v -464 -112 0
v -480 -112 0
v 0 -128 0
v -16 -128 0
v -48 -128 0
v -64 -128 0
v -224 -128 0
v -240 -128 0
v -240 -112 0
v -224 -112 0
v -464 -128 0
v -480 -128 0
v 0 -144 0
v -16 -144 0
v -480 -144 0
v 0 -160 0
v -16 -160 0
v -464 -160 0
v -480 -160 0
v 0 -176 0
v -16 -176 0
v -464 -176 0
v -480 -176 0
v 0 -192 0
v -16 -192 0
v -464 -192 0
v -480 -192 0
v 0 -208 0
v -16 -208 0
v -480 -208 0
v 0 -224 0
v -16 -224 0
v -464 -224 0
v -480 -224 0
v 0 -240 0
v -16 -240 0
v -48 -240 0
v -64 -240 0
v -64 -224 0
v -48 -224 0
v -464 -240 0
v -480 -240 0
v 0 -256 0
v -16 -256 0
v -48 -256 0
v -64 -256 0
v -464 -256 0
v -480 -256 0
v 0 -272 0
v -16 -272 0
v -48 -272 0
v -64 -272 0
v -464 -272 0
v -480 -272 0
v 0 -288 0
v -16 -288 0
v -48 -288 0
v -64 -288 0
v -80 -288 0
v -80 -224 0
v -96 -288 0
v -96 -224 0
v -112 -288 0
v -112 -224 0
v -144 -288 0
v -160 -288 0
v -160 -224 0
v -144 -224 0
v -176 -288 0
v -176 -224 0
v -192 -288 0
v -192 -224 0
v -208 -288 0
v -208 -224 0
v -224 -288 0
v -224 -224 0
v -240 -288 0
v -240 -224 0
v -256 -288 0
v -256 -224 0
v -272 -288 0
v -272 -224 0
v -288 -288 0
v -288 -224 0
v -304 -288 0
v -304 -224 0
v -320 -288 0
v -320 -224 0
v -336 -288 0
v -336 -224 0
v -368 -288 0
v -384 -288 0
v -384 -224 0
v -368 -224 0
v -400 -288 0
v -400 -224 0
v -416 -288 0
v -416 -224 0
v -432 -288 0
v -432 -224 0
v -448 -288 0
v -448 -224 0
v -464 -288 0
v -480 -288 0
v 0 -304 0
v -16 -304 0
v -48 -304 0
v -64 -304 0
v -464 -304 0
v -480 -304 0
v 0 -320 0
v -16 -320 0
v -48 -320 0
v -64 -320 0
v -464 -320 0
v -480 -320 0
v 0 -336 0
v -16 -336 0
v -464 -336 0
v -480 -336 0
v 0 -352 0
v -16 -352 0
v -464 -352 0
v -480 -352 0
v 0 -368 0
v -16 -368 0
v -48 -368 0
v -64 -368 0
v -64 -352 0
v -48 -352 0
v -464 -368 0
v -480 -368 0
v 0 -384 0
v -16 -384 0
v -48 -384 0
v -64 -384 0
v -464 -384 0
v -480 -384 0
v 0 -400 0
v -16 -400 0
v -48 -400 0
v -64 -400 0
v -464 -400 0
v -480 -400 0
v 0 -416 0
v -16 -416 0
v -464 -416 0
v -480 -416 0
v 0 -432 0
v -16 -432 0
v -464 -432 0
v -480 -432 0
v 0 -448 0
v -16 -448 0
v 0 -464 0
v -16 -464 0
v -32 -464 0
v -32 -400 0
v -48 -464 0
v -64 -464 0
v -80 -464 0
v -80 -400 0
v -96 -464 0
v -96 -400 0
v -112 -464 0
v -112 -400 0
v -128 -464 0
v -128 -400 0
v -144 -464 0
v -144 -400 0
v -160 -464 0
v -160 -400 0
v -176 -464 0
v -176 -400 0
v -192 -464 0
v -192 -400 0
v -208 -464 0
v -208 -400 0
v -224 -464 0
v -224 -400 0
v -240 -464 0
v -240 -400 0
v -256 -464 0
v -256 -400 0
v -272 -464 0
v -272 -400 0
v -288 -464 0
v -288 -400 0
v -304 -464 0
v -304 -400 0
v -320 -464 0
v -320 -400 0
v -336 -464 0
v -336 -400 0
v -352 -464 0
v -352 -400 0
v -368 -464 0
v -368 -400 0
v -384 -464 0
v -384 -400 0
v -400 -464 0
v -400 -400 0
v -416 -464 0
v -416 -400 0
v -432 -464 0
v -432 -400 0
v -448 -464 0
v -448 -400 0
v -464 -464 0
v -480 -464 0

# Texture Coorindates (Count = 30)
vt 0.0001220703 0.0001220703
vt 0.2498779 0.0001220703
vt 0.2498779 0.9998779
vt 0.0001220703 0.9998779
vt 0.2501221 0.0001220703
vt 0.4998779 0.0001220703
vt 0.4998779 0.9998779
vt 0.2501221 0.9998779
vt 0.7501221 0.0001220703
vt 0.9998779 0.0001220703
vt 0.9998779 0.9998779
vt 0.7501221 0.9998779
vt 0.0001220703 0.7501221
vt 0.4998779 0.7501221
vt 0.4998779 0.2498779
vt 0.0001220703 0.2498779
vt 0.5001221 0.7501221
vt 0.9998779 0.7501221
vt 0.5001221 0.9998779
vt 0.0001220703 0.5001221
vt 0.4998779 0.5001221
vt 0.4998779 0.7498779
vt 0.0001220703 0.7498779
vt 0.0001220703 0.2501221
vt 0.4998779 0.2501221
vt 0.4998779 0.4998779
vt 0.0001220703 0.4998779
vt 0.5001221 0.0001220703
vt 0.7498779 0.0001220703
vt 0.7498779 0.9998779

# Normal
vn 0 0 -1

# Groups (Count = 3)
g mesh_[00]_[00]
f  1/1/1  2/2/1  3/3/1  4/4/1 
f  2/5/1  5/6/1  6/7/1  3/8/1 
f  5/5/1  7/6/1  8/7/1  6/8/1 
f  7/5/1  9/6/1  10/7/1  8/8/1 
f  9/5/1  11/6/1  12/7/1  10/8/1 
f  11/5/1  13/6/1  14/7/1  12/8/1 
f  13/5/1  15/6/1  16/7/1  14/8/1 
f  15/5/1  17/6/1  18/7/1  16/8/1 
f  19/5/1  20/6/1  21/7/1  22/8/1 
f  20/9/1  23/10/1  24/11/1  21/12/1 
f  23/5/1  25/6/1  26/7/1  24/8/1 
f  27/5/1  28/6/1  29/7/1  30/8/1 
f  28/5/1  31/6/1  32/7/1  29/8/1 
f  31/5/1  33/6/1  34/7/1  32/8/1 
f  33/5/1  35/6/1  36/7/1  34/8/1 
f  35/5/1  37/6/1  38/7/1  36/8/1 
f  37/5/1  39/6/1  40/7/1  38/8/1 
f  39/5/1  41/6/1  42/7/1  40/8/1 
f  41/5/1  43/6/1  44/7/1  42/8/1 
f  43/5/1  45/6/1  46/7/1  44/8/1 
f  45/5/1  47/6/1  48/7/1  46/8/1 
f  47/5/1  49/6/1  50/7/1  48/8/1 
g mesh_[01]_[02]
f  51/13/1  52/14/1  53/7/1  54/4/1 
f  55/1/1  56/6/1  57/15/1  58/16/1 
f  59/1/1  60/6/1  61/15/1  62/16/1 
f  63/17/1  64/18/1  65/11/1  66/19/1 
f  67/20/1  68/21/1  52/22/1  51/23/1 
f  69/20/1  70/21/1  56/22/1  55/23/1 
f  71/20/1  72/21/1  60/22/1  59/23/1 
f  73/20/1  74/21/1  64/22/1  63/23/1 
f  75/20/1  76/21/1  68/22/1  67/23/1 
f  77/20/1  78/21/1  70/22/1  69/23/1 
f  79/20/1  80/21/1  72/22/1  71/23/1 
f  81/20/1  82/21/1  74/22/1  73/23/1 
f  83/20/1  84/21/1  76/22/1  75/23/1 
f  85/20/1  86/21/1  78/22/1  77/23/1 
f  105/20/1  106/21/1  80/22/1  79/23/1 
f  133/20/1  134/21/1  82/22/1  81/23/1 
f  135/20/1  136/21/1  84/22/1  83/23/1 
f  137/20/1  138/21/1  86/22/1  85/23/1 
f  139/20/1  140/21/1  134/22/1  133/23/1 
f  141/20/1  142/21/1  136/22/1  135/23/1 
f  143/20/1  144/21/1  138/22/1  137/23/1 
f  145/20/1  146/21/1  140/22/1  139/23/1 
f  147/20/1  148/21/1  142/22/1  141/23/1 
f  149/20/1  150/21/1  144/22/1  143/23/1 
f  151/20/1  152/21/1  153/22/1  154/23/1 
f  155/20/1  156/21/1  146/22/1  145/23/1 
f  157/20/1  158/21/1  148/22/1  147/23/1 
f  4/20/1  3/21/1  150/22/1  149/23/1 
f  21/20/1  24/21/1  152/22/1  151/23/1 
f  50/20/1  159/21/1  156/22/1  155/23/1 
f  160/20/1  161/21/1  158/22/1  157/23/1 
f  162/24/1  163/25/1  159/26/1  50/27/1 
f  164/20/1  165/21/1  161/22/1  160/23/1 
f  166/20/1  167/21/1  163/22/1  162/23/1 
f  168/20/1  169/21/1  165/22/1  164/23/1 
f  170/20/1  171/21/1  167/22/1  166/23/1 
f  172/20/1  173/21/1  169/22/1  168/23/1 
f  49/20/1  174/21/1  171/22/1  170/23/1 
f  175/20/1  176/21/1  173/22/1  172/23/1 
f  177/20/1  178/21/1  174/22/1  49/23/1 
f  179/20/1  180/21/1  176/22/1  175/23/1 
f  181/13/1  182/14/1  183/7/1  184/4/1 
f  185/24/1  186/25/1  178/26/1  177/27/1 
f  187/20/1  188/21/1  180/22/1  179/23/1 
f  189/20/1  190/21/1  182/22/1  181/23/1 
f  191/20/1  192/21/1  186/22/1  185/23/1 
f  193/20/1  194/21/1  188/22/1  187/23/1 
f  195/20/1  196/21/1  190/22/1  189/23/1 
f  197/20/1  198/21/1  192/22/1  191/23/1 
f  199/20/1  200/21/1  194/22/1  193/23/1 
f  201/20/1  202/21/1  196/22/1  195/23/1 
f  247/20/1  248/21/1  198/22/1  197/23/1 
f  249/20/1  250/21/1  200/22/1  199/23/1 
f  251/20/1  252/21/1  202/22/1  201/23/1 
f  253/20/1  254/21/1  248/22/1  247/23/1 
f  255/20/1  256/21/1  250/22/1  249/23/1 
f  257/20/1  258/21/1  252/22/1  251/23/1 
f  259/20/1  260/21/1  254/22/1  253/23/1 
f  261/20/1  262/21/1  256/22/1  255/23/1 
f  263/20/1  264/21/1  260/22/1  259/23/1 
f  265/20/1  266/21/1  262/22/1  261/23/1 
f  267/20/1  268/21/1  264/22/1  263/23/1 
f  269/20/1  270/21/1  266/22/1  265/23/1 
f  271/20/1  272/21/1  273/22/1  274/23/1 
f  275/20/1  276/21/1  268/22/1  267/23/1 
f  277/20/1  278/21/1  270/22/1  269/23/1 
f  279/20/1  280/21/1  272/22/1  271/23/1 
f  281/20/1  282/21/1  276/22/1  275/23/1 
f  283/20/1  284/21/1  278/22/1  277/23/1 
f  285/20/1  286/21/1  280/22/1  279/23/1 
f  287/20/1  288/21/1  282/22/1  281/23/1 
f  289/20/1  290/21/1  284/22/1  283/23/1 
f  291/20/1  292/21/1  288/22/1  287/23/1 
f  293/20/1  294/21/1  290/22/1  289/23/1 
f  295/20/1  296/21/1  292/22/1  291/23/1 
f  297/20/1  298/21/1  294/22/1  293/23/1 
g mesh_[01]_[00]
f  86/5/1  87/6/1  88/7/1  57/8/1 
f  87/5/1  89/6/1  90/7/1  88/8/1 
f  89/5/1  91/6/1  92/7/1  90/8/1 
f  91/5/1  93/6/1  94/7/1  92/8/1 
f  93/5/1  95/6/1  96/7/1  94/8/1 
f  95/5/1  97/6/1  98/7/1  96/8/1 
f  97/5/1  99/6/1  100/7/1  98/8/1 
f  99/5/1  101/6/1  102/7/1  100/8/1 
f  101/5/1  103/6/1  104/7/1  102/8/1 
f  103/5/1  105/6/1  62/7/1  104/8/1 
f  106/5/1  107/6/1  108/7/1  61/8/1 
f  107/5/1  109/6/1  110/7/1  108/8/1 
f  109/5/1  111/6/1  112/7/1  110/8/1 
f  111/5/1  113/6/1  114/7/1  112/8/1 
f  113/5/1  115/6/1  116/7/1  114/8/1 
f  115/5/1  117/6/1  118/7/1  116/8/1 
f  117/5/1  119/6/1  120/7/1  118/8/1 
f  119/5/1  121/6/1  122/7/1  120/8/1 
f  121/5/1  123/6/1  124/7/1  122/8/1 
f  123/5/1  125/6/1  126/7/1  124/8/1 
f  125/5/1  127/6/1  128/7/1  126/8/1 
f  127/5/1  129/6/1  130/7/1  128/8/1 
f  129/5/1  131/6/1  132/7/1  130/8/1 
f  131/5/1  133/6/1  66/7/1  132/8/1 
f  202/5/1  203/6/1  204/7/1  183/8/1 
f  203/5/1  205/6/1  206/7/1  204/8/1 
f  205/5/1  207/6/1  208/7/1  206/8/1 
f  209/5/1  210/6/1  211/7/1  212/8/1 
f  210/5/1  213/6/1  214/7/1  211/8/1 
f  213/5/1  215/6/1  216/7/1  214/8/1 
f  215/5/1  217/6/1  218/7/1  216/8/1 
f  217/5/1  219/6/1  220/7/1  218/8/1 
f  219/5/1  221/6/1  222/7/1  220/8/1 
f  221/5/1  223/6/1  224/7/1  222/8/1 
f  223/5/1  225/6/1  226/7/1  224/8/1 
f  225/5/1  227/6/1  228/7/1  226/8/1 
f  227/5/1  229/6/1  230/7/1  228/8/1 
f  229/5/1  231/6/1  232/7/1  230/8/1 
f  231/5/1  233/6/1  234/7/1  232/8/1 
f  235/5/1  236/6/1  237/7/1  238/8/1 
f  236/5/1  239/6/1  240/7/1  237/8/1 
f  239/5/1  241/6/1  242/7/1  240/8/1 
f  241/5/1  243/6/1  244/7/1  242/8/1 
f  243/5/1  245/6/1  246/7/1  244/8/1 
f  245/5/1  247/6/1  177/7/1  246/8/1 
f  299/1/1  300/2/1  284/3/1  283/4/1 
f  300/5/1  301/6/1  302/7/1  284/8/1 
f  301/5/1  303/6/1  285/7/1  302/8/1 
f  303/9/1  304/10/1  286/11/1  285/12/1 
f  304/5/1  305/6/1  306/7/1  286/8/1 
f  305/5/1  307/6/1  308/7/1  306/8/1 
f  307/5/1  309/6/1  310/7/1  308/8/1 
f  309/5/1  311/6/1  312/7/1  310/8/1 
f  311/5/1  313/6/1  314/7/1  312/8/1 
f  313/5/1  315/6/1  316/7/1  314/8/1 
f  315/5/1  317/6/1  318/7/1  316/8/1 
f  317/5/1  319/6/1  320/7/1  318/8/1 
f  319/5/1  321/6/1  322/7/1  320/8/1 
f  321/5/1  323/6/1  324/7/1  322/8/1 
f  323/5/1  325/6/1  326/7/1  324/8/1 
f  325/5/1  327/6/1  328/7/1  326/8/1 
f  327/5/1  329/6/1  330/7/1  328/8/1 
f  329/5/1  331/6/1  332/7/1  330/8/1 
f  331/5/1  333/6/1  334/7/1  332/8/1 
f  333/5/1  335/6/1  336/7/1  334/8/1 
f  335/5/1  337/6/1  338/7/1  336/8/1 
f  337/5/1  339/6/1  340/7/1  338/8/1 
f  339/5/1  341/6/1  342/7/1  340/8/1 
f  341/5/1  343/6/1  344/7/1  342/8/1 
f  343/5/1  345/6/1  346/7/1  344/8/1 
f  345/5/1  347/6/1  348/7/1  346/8/1 
f  347/5/1  349/6/1  350/7/1  348/8/1 
f  349/5/1  351/6/1  352/7/1  350/8/1 
f  351/5/1  353/6/1  287/7/1  352/8/1 
f  353/28/1  354/29/1  288/30/1  287/19/1 
