# Wavefront OBJ file automatically generated by Tiled2Unity

# Vertices (Count = 314)
v -112 -976 0
v -128 -976 0
v -128 -960 0
v -112 -960 0
v -288 -976 0
v -304 -976 0
v -304 -960 0
v -288 -960 0
v -112 -992 0
v -128 -992 0
v -288 -992 0
v -304 -992 0
v -112 -1008 0
v -128 -1008 0
v -288 -1008 0
v -304 -1008 0
v -112 -1024 0
v -128 -1024 0
v -144 -1024 0
v -144 -960 0
v -160 -1024 0
v -160 -960 0
v -176 -1024 0
v -176 -960 0
v -192 -1024 0
v -192 -960 0
v -224 -1024 0
v -240 -1024 0
v -240 -960 0
v -224 -960 0
v -256 -1024 0
v -256 -960 0
v -272 -1024 0
v -272 -960 0
v -288 -1024 0
v -304 -1024 0
v -112 -1040 0
v -128 -1040 0
v -288 -1040 0
v -304 -1040 0
v -112 -1056 0
v -128 -1056 0
v -288 -1056 0
v -304 -1056 0
v -112 -1072 0
v -128 -1072 0
v -288 -1072 0
v -304 -1072 0
v -112 -1088 0
v -128 -1088 0
v -288 -1088 0
v -304 -1088 0
v -112 -1104 0
v -128 -1104 0
v -288 -1104 0
v -304 -1104 0
v -112 -1120 0
v -128 -1120 0
v -288 -1120 0
v -304 -1120 0
v -112 -1136 0
v -128 -1136 0
v -288 -1136 0
v -304 -1136 0
v -112 -1152 0
v -128 -1152 0
v -288 -1152 0
v -304 -1152 0
v -112 -1168 0
v -128 -1168 0
v -288 -1168 0
v -304 -1168 0
v -112 -1184 0
v -128 -1184 0
v -288 -1184 0
v -304 -1184 0
v -112 -1200 0
v -128 -1200 0
v -288 -1200 0
v -304 -1200 0
v -112 -1216 0
v -128 -1216 0
v -288 -1216 0
v -304 -1216 0
v -112 -1232 0
v -128 -1232 0
v -288 -1232 0
v -304 -1232 0
v -112 -1248 0
v -128 -1248 0
v -144 -1248 0
v -144 -1184 0
v -160 -1248 0
v -160 -1184 0
v -176 -1248 0
v -176 -1184 0
v -192 -1248 0
v -192 -1184 0
v -224 -1248 0
v -240 -1248 0
v -240 -1184 0
v -224 -1184 0
v -256 -1248 0
v -256 -1184 0
v -272 -1248 0
v -272 -1184 0
v -288 -1248 0
v -304 -1248 0
v -112 -1264 0
v -128 -1264 0
v -288 -1264 0
v -304 -1264 0
v -112 -1280 0
v -128 -1280 0
v -288 -1280 0
v -304 -1280 0
v -112 -1296 0
v -128 -1296 0
v -288 -1296 0
v -304 -1296 0
v -112 -1312 0
v -128 -1312 0
v -288 -1312 0
v -304 -1312 0
v -112 -1328 0
v -128 -1328 0
v -288 -1328 0
v -304 -1328 0
v -112 -1344 0
v -128 -1344 0
v -288 -1344 0
v -304 -1344 0
v -112 -1360 0
v -128 -1360 0
v -288 -1360 0
v -304 -1360 0
v -112 -1376 0
v -128 -1376 0
v -288 -1376 0
v -304 -1376 0
v -112 -1392 0
v -128 -1392 0
v -288 -1392 0
v -304 -1392 0
v -112 -1408 0
v -128 -1408 0
v -288 -1408 0
v -304 -1408 0
v -112 -1424 0
v -128 -1424 0
v -288 -1424 0
v -304 -1424 0
v -112 -1440 0
v -128 -1440 0
v -288 -1440 0
v -304 -1440 0
v -112 -1456 0
v -128 -1456 0
v -288 -1456 0
v -304 -1456 0
v -112 -1472 0
v -128 -1472 0
v -144 -1472 0
v -144 -1408 0
v -160 -1472 0
v -160 -1408 0
v -176 -1472 0
v -176 -1408 0
v -192 -1472 0
v -192 -1408 0
v -224 -1472 0
v -240 -1472 0
v -240 -1408 0
v -224 -1408 0
v -256 -1472 0
v -256 -1408 0
v -272 -1472 0
v -272 -1408 0
v -288 -1472 0
v -304 -1472 0
v -112 -1488 0
v -128 -1488 0
v -288 -1488 0
v -304 -1488 0
v -112 -1504 0
v -128 -1504 0
v -288 -1504 0
v -304 -1504 0
v -112 -1520 0
v -128 -1520 0
v -288 -1520 0
v -304 -1520 0
v -112 -1536 0
v -128 -1536 0
v -288 -1536 0
v -304 -1536 0
v -112 -1552 0
v -128 -1552 0
v -288 -1552 0
v -304 -1552 0
v -112 -1568 0
v -128 -1568 0
v -288 -1568 0
v -304 -1568 0
v -112 -1584 0
v -128 -1584 0
v -288 -1584 0
v -304 -1584 0
v -112 -1600 0
v -128 -1600 0
v -288 -1600 0
v -304 -1600 0
v -112 -1616 0
v -128 -1616 0
v -288 -1616 0
v -304 -1616 0
v -112 -1632 0
v -128 -1632 0
v -288 -1632 0
v -304 -1632 0
v -112 -1648 0
v -128 -1648 0
v -288 -1648 0
v -304 -1648 0
v -112 -1664 0
v -128 -1664 0
v -288 -1664 0
v -304 -1664 0
v -112 -1680 0
v -128 -1680 0
v -288 -1680 0
v -304 -1680 0
v -112 -1696 0
v -128 -1696 0
v -144 -1696 0
v -144 -1632 0
v -160 -1696 0
v -160 -1632 0
v -176 -1696 0
v -176 -1632 0
v -192 -1696 0
v -192 -1632 0
v -224 -1696 0
v -240 -1696 0
v -240 -1632 0
v -224 -1632 0
v -256 -1696 0
v -256 -1632 0
v -272 -1696 0
v -272 -1632 0
v -288 -1696 0
v -304 -1696 0
v -112 -1712 0
v -128 -1712 0
v -288 -1712 0
v -304 -1712 0
v -112 -1728 0
v -128 -1728 0
v -288 -1728 0
v -304 -1728 0
v -112 -1744 0
v -128 -1744 0
v -288 -1744 0
v -304 -1744 0
v -112 -1760 0
v -128 -1760 0
v -288 -1760 0
v -304 -1760 0
v -112 -1776 0
v -128 -1776 0
v -288 -1776 0
v -304 -1776 0
v -112 -1792 0
v -128 -1792 0
v -288 -1792 0
v -304 -1792 0
v -112 -1808 0
v -128 -1808 0
v -288 -1808 0
v -304 -1808 0
v -112 -1824 0
v -128 -1824 0
v -288 -1824 0
v -304 -1824 0
v -112 -1840 0
v -128 -1840 0
v -288 -1840 0
v -304 -1840 0
v -112 -1856 0
v -128 -1856 0
v -288 -1856 0
v -304 -1856 0
v -112 -1920 0
v -128 -1920 0
v -144 -1920 0
v -144 -1856 0
v -160 -1920 0
v -160 -1856 0
v -176 -1920 0
v -176 -1856 0
v -192 -1920 0
v -192 -1856 0
v -208 -1920 0
v -208 -1856 0
v -224 -1920 0
v -224 -1856 0
v -240 -1920 0
v -240 -1856 0
v -256 -1920 0
v -256 -1856 0
v -272 -1920 0
v -272 -1856 0
v -288 -1920 0
v -304 -1920 0

# Texture Coorindates (Count = 24)
vt 0.5001221 0.2501221
vt 0.9998779 0.2501221
vt 0.9998779 0.4998779
vt 0.5001221 0.4998779
vt 0.0001220703 0.2501221
vt 0.4998779 0.2501221
vt 0.4998779 0.4998779
vt 0.0001220703 0.4998779
vt 0.0001220703 0.5001221
vt 0.4998779 0.5001221
vt 0.4998779 0.7498779
vt 0.0001220703 0.7498779
vt 0.3334554 0.0001220703
vt 0.4998779 0.0001220703
vt 0.4998779 0.9998779
vt 0.3334554 0.9998779
vt 0.1667887 0.0001220703
vt 0.3332113 0.0001220703
vt 0.3332113 0.9998779
vt 0.1667887 0.9998779
vt 0.5001221 0.0001220703
vt 0.6665446 0.0001220703
vt 0.6665446 0.9998779
vt 0.5001221 0.9998779

# Normal
vn 0 0 -1

# Groups (Count = 2)
g mesh_[00]_[01]
f  1/1/1  2/2/1  3/3/1  4/4/1 
f  5/5/1  6/6/1  7/7/1  8/8/1 
f  9/9/1  10/10/1  2/11/1  1/12/1 
f  11/9/1  12/10/1  6/11/1  5/12/1 
f  13/9/1  14/10/1  10/11/1  9/12/1 
f  15/9/1  16/10/1  12/11/1  11/12/1 
f  17/9/1  18/10/1  14/11/1  13/12/1 
f  35/9/1  36/10/1  16/11/1  15/12/1 
f  37/9/1  38/10/1  18/11/1  17/12/1 
f  39/9/1  40/10/1  36/11/1  35/12/1 
f  41/9/1  42/10/1  38/11/1  37/12/1 
f  43/9/1  44/10/1  40/11/1  39/12/1 
f  45/9/1  46/10/1  42/11/1  41/12/1 
f  47/9/1  48/10/1  44/11/1  43/12/1 
f  49/9/1  50/10/1  46/11/1  45/12/1 
f  51/9/1  52/10/1  48/11/1  47/12/1 
f  53/9/1  54/10/1  50/11/1  49/12/1 
f  55/9/1  56/10/1  52/11/1  51/12/1 
f  57/9/1  58/10/1  54/11/1  53/12/1 
f  59/9/1  60/10/1  56/11/1  55/12/1 
f  61/9/1  62/10/1  58/11/1  57/12/1 
f  63/9/1  64/10/1  60/11/1  59/12/1 
f  65/9/1  66/10/1  62/11/1  61/12/1 
f  67/9/1  68/10/1  64/11/1  63/12/1 
f  69/9/1  70/10/1  66/11/1  65/12/1 
f  71/9/1  72/10/1  68/11/1  67/12/1 
f  73/9/1  74/10/1  70/11/1  69/12/1 
f  75/9/1  76/10/1  72/11/1  71/12/1 
f  77/1/1  78/2/1  74/3/1  73/4/1 
f  79/5/1  80/6/1  76/7/1  75/8/1 
f  81/9/1  82/10/1  78/11/1  77/12/1 
f  83/9/1  84/10/1  80/11/1  79/12/1 
f  85/9/1  86/10/1  82/11/1  81/12/1 
f  87/9/1  88/10/1  84/11/1  83/12/1 
f  89/9/1  90/10/1  86/11/1  85/12/1 
f  107/9/1  108/10/1  88/11/1  87/12/1 
f  109/9/1  110/10/1  90/11/1  89/12/1 
f  111/9/1  112/10/1  108/11/1  107/12/1 
f  113/9/1  114/10/1  110/11/1  109/12/1 
f  115/9/1  116/10/1  112/11/1  111/12/1 
f  117/9/1  118/10/1  114/11/1  113/12/1 
f  119/9/1  120/10/1  116/11/1  115/12/1 
f  121/9/1  122/10/1  118/11/1  117/12/1 
f  123/9/1  124/10/1  120/11/1  119/12/1 
f  125/9/1  126/10/1  122/11/1  121/12/1 
f  127/9/1  128/10/1  124/11/1  123/12/1 
f  129/9/1  130/10/1  126/11/1  125/12/1 
f  131/9/1  132/10/1  128/11/1  127/12/1 
f  133/9/1  134/10/1  130/11/1  129/12/1 
f  135/9/1  136/10/1  132/11/1  131/12/1 
f  137/9/1  138/10/1  134/11/1  133/12/1 
f  139/9/1  140/10/1  136/11/1  135/12/1 
f  141/9/1  142/10/1  138/11/1  137/12/1 
f  143/9/1  144/10/1  140/11/1  139/12/1 
f  145/9/1  146/10/1  142/11/1  141/12/1 
f  147/9/1  148/10/1  144/11/1  143/12/1 
f  149/1/1  150/2/1  146/3/1  145/4/1 
f  151/5/1  152/6/1  148/7/1  147/8/1 
f  153/9/1  154/10/1  150/11/1  149/12/1 
f  155/9/1  156/10/1  152/11/1  151/12/1 
f  157/9/1  158/10/1  154/11/1  153/12/1 
f  159/9/1  160/10/1  156/11/1  155/12/1 
f  161/9/1  162/10/1  158/11/1  157/12/1 
f  179/9/1  180/10/1  160/11/1  159/12/1 
f  181/9/1  182/10/1  162/11/1  161/12/1 
f  183/9/1  184/10/1  180/11/1  179/12/1 
f  185/9/1  186/10/1  182/11/1  181/12/1 
f  187/9/1  188/10/1  184/11/1  183/12/1 
f  189/9/1  190/10/1  186/11/1  185/12/1 
f  191/9/1  192/10/1  188/11/1  187/12/1 
f  193/9/1  194/10/1  190/11/1  189/12/1 
f  195/9/1  196/10/1  192/11/1  191/12/1 
f  197/9/1  198/10/1  194/11/1  193/12/1 
f  199/9/1  200/10/1  196/11/1  195/12/1 
f  201/9/1  202/10/1  198/11/1  197/12/1 
f  203/9/1  204/10/1  200/11/1  199/12/1 
f  205/9/1  206/10/1  202/11/1  201/12/1 
f  207/9/1  208/10/1  204/11/1  203/12/1 
f  209/9/1  210/10/1  206/11/1  205/12/1 
f  211/9/1  212/10/1  208/11/1  207/12/1 
f  213/9/1  214/10/1  210/11/1  209/12/1 
f  215/9/1  216/10/1  212/11/1  211/12/1 
f  217/9/1  218/10/1  214/11/1  213/12/1 
f  219/9/1  220/10/1  216/11/1  215/12/1 
f  221/1/1  222/2/1  218/3/1  217/4/1 
f  223/5/1  224/6/1  220/7/1  219/8/1 
f  225/9/1  226/10/1  222/11/1  221/12/1 
f  227/9/1  228/10/1  224/11/1  223/12/1 
f  229/9/1  230/10/1  226/11/1  225/12/1 
f  231/9/1  232/10/1  228/11/1  227/12/1 
f  233/9/1  234/10/1  230/11/1  229/12/1 
f  251/9/1  252/10/1  232/11/1  231/12/1 
f  253/9/1  254/10/1  234/11/1  233/12/1 
f  255/9/1  256/10/1  252/11/1  251/12/1 
f  257/9/1  258/10/1  254/11/1  253/12/1 
f  259/9/1  260/10/1  256/11/1  255/12/1 
f  261/9/1  262/10/1  258/11/1  257/12/1 
f  263/9/1  264/10/1  260/11/1  259/12/1 
f  265/9/1  266/10/1  262/11/1  261/12/1 
f  267/9/1  268/10/1  264/11/1  263/12/1 
f  269/9/1  270/10/1  266/11/1  265/12/1 
f  271/9/1  272/10/1  268/11/1  267/12/1 
f  273/9/1  274/10/1  270/11/1  269/12/1 
f  275/9/1  276/10/1  272/11/1  271/12/1 
f  277/9/1  278/10/1  274/11/1  273/12/1 
f  279/9/1  280/10/1  276/11/1  275/12/1 
f  281/9/1  282/10/1  278/11/1  277/12/1 
f  283/9/1  284/10/1  280/11/1  279/12/1 
f  285/9/1  286/10/1  282/11/1  281/12/1 
f  287/9/1  288/10/1  284/11/1  283/12/1 
f  289/9/1  290/10/1  286/11/1  285/12/1 
f  291/9/1  292/10/1  288/11/1  287/12/1 
g mesh_[00]_[00]
f  18/13/1  19/14/1  20/15/1  3/16/1 
f  19/13/1  21/14/1  22/15/1  20/16/1 
f  21/13/1  23/14/1  24/15/1  22/16/1 
f  23/13/1  25/14/1  26/15/1  24/16/1 
f  27/13/1  28/14/1  29/15/1  30/16/1 
f  28/13/1  31/14/1  32/15/1  29/16/1 
f  31/13/1  33/14/1  34/15/1  32/16/1 
f  33/13/1  35/14/1  8/15/1  34/16/1 
f  90/13/1  91/14/1  92/15/1  74/16/1 
f  91/13/1  93/14/1  94/15/1  92/16/1 
f  93/13/1  95/14/1  96/15/1  94/16/1 
f  95/13/1  97/14/1  98/15/1  96/16/1 
f  99/13/1  100/14/1  101/15/1  102/16/1 
f  100/13/1  103/14/1  104/15/1  101/16/1 
f  103/13/1  105/14/1  106/15/1  104/16/1 
f  105/13/1  107/14/1  75/15/1  106/16/1 
f  162/13/1  163/14/1  164/15/1  146/16/1 
f  163/13/1  165/14/1  166/15/1  164/16/1 
f  165/13/1  167/14/1  168/15/1  166/16/1 
f  167/13/1  169/14/1  170/15/1  168/16/1 
f  171/13/1  172/14/1  173/15/1  174/16/1 
f  172/13/1  175/14/1  176/15/1  173/16/1 
f  175/13/1  177/14/1  178/15/1  176/16/1 
f  177/13/1  179/14/1  147/15/1  178/16/1 
f  234/13/1  235/14/1  236/15/1  218/16/1 
f  235/13/1  237/14/1  238/15/1  236/16/1 
f  237/13/1  239/14/1  240/15/1  238/16/1 
f  239/13/1  241/14/1  242/15/1  240/16/1 
f  243/13/1  244/14/1  245/15/1  246/16/1 
f  244/13/1  247/14/1  248/15/1  245/16/1 
f  247/13/1  249/14/1  250/15/1  248/16/1 
f  249/13/1  251/14/1  219/15/1  250/16/1 
f  293/17/1  294/18/1  290/19/1  289/20/1 
f  294/13/1  295/14/1  296/15/1  290/16/1 
f  295/13/1  297/14/1  298/15/1  296/16/1 
f  297/13/1  299/14/1  300/15/1  298/16/1 
f  299/13/1  301/14/1  302/15/1  300/16/1 
f  301/13/1  303/14/1  304/15/1  302/16/1 
f  303/13/1  305/14/1  306/15/1  304/16/1 
f  305/13/1  307/14/1  308/15/1  306/16/1 
f  307/13/1  309/14/1  310/15/1  308/16/1 
f  309/13/1  311/14/1  312/15/1  310/16/1 
f  311/13/1  313/14/1  291/15/1  312/16/1 
f  313/21/1  314/22/1  292/23/1  291/24/1 
